<?xml version="1.0" encoding="UTF-8"?>
<svg width="29px" height="29px" viewBox="0 0 29 29" version="1.1" xmlns="http://www.w3.org/2000/svg" xmlns:xlink="http://www.w3.org/1999/xlink">
    <title>4B1AA6CA-8A2A-4677-843D-5E7318DFA76A</title>
    <g id="Checkout" stroke="none" stroke-width="1" fill="none" fill-rule="evenodd">
        <g id="Checkout_My-address" transform="translate(-231.000000, -1506.000000)" fill="#FFFFFF" fill-rule="nonzero" stroke="#FFFFFF">
            <g id="Add-to-cart-Copy" transform="translate(32.000000, 1480.000000)">
                <g id="Group-3" transform="translate(199.000000, 26.000000)">
                    <path d="M15.9746197,14.1424307 L23.7623794,6.35443379 C24.2691936,5.84785688 24.2691936,5.02879203 23.7623794,4.52221511 C23.2558025,4.0156382 22.4367377,4.0156382 21.9301607,4.52221511 L14.1421638,12.3102121 L6.35440412,4.52221511 C5.84758995,4.0156382 5.02876235,4.0156382 4.52218544,4.52221511 C4.01537127,5.02879203 4.01537127,5.84785688 4.52218544,6.35443379 L12.3099452,14.1424307 L4.52218544,21.9304277 C4.01537127,22.4370046 4.01537127,23.2560694 4.52218544,23.7626463 C4.77464344,24.0153416 5.10658775,24.1422824 5.43829481,24.1422824 C5.77000181,24.1422824 6.10170886,24.0153416 6.35440412,23.7626463 L14.1421638,15.9746494 L21.9301607,23.7626463 C22.182856,24.0153416 22.5145631,24.1422824 22.8462701,24.1422824 C23.1779771,24.1422824 23.5096841,24.0153416 23.7623794,23.7626463 C24.2691936,23.2560694 24.2691936,22.4370046 23.7623794,21.9304277 L15.9746197,14.1424307 Z" id="Path-Copy" transform="translate(14.142282, 14.142282) rotate(-315.000000) translate(-14.142282, -14.142282) "></path>
                </g>
            </g>
        </g>
    </g>
</svg>